<mxfile host="Electron" agent="Mozilla/5.0 (Windows NT 10.0; Win64; x64) AppleWebKit/537.36 (KHTML, like Gecko) draw.io/24.7.17 Chrome/128.0.6613.36 Electron/32.0.1 Safari/537.36" version="24.7.17">
  <diagram name="第1頁" id="TVaJ-6394lZ727yUnW_T">
    <mxGraphModel dx="1434" dy="2013" grid="1" gridSize="10" guides="1" tooltips="1" connect="1" arrows="1" fold="1" page="1" pageScale="1" pageWidth="827" pageHeight="1169" math="0" shadow="0">
      <root>
        <mxCell id="0" />
        <mxCell id="1" parent="0" />
        <mxCell id="tWP90vqmqq2vysEYvQ3B-31" value="" style="edgeStyle=orthogonalEdgeStyle;rounded=0;sketch=1;hachureGap=4;jiggle=2;curveFitting=1;orthogonalLoop=1;jettySize=auto;html=1;fontFamily=Architects Daughter;fontSource=https%3A%2F%2Ffonts.googleapis.com%2Fcss%3Ffamily%3DArchitects%2BDaughter;" edge="1" parent="1" source="tWP90vqmqq2vysEYvQ3B-1" target="tWP90vqmqq2vysEYvQ3B-2">
          <mxGeometry relative="1" as="geometry" />
        </mxCell>
        <mxCell id="tWP90vqmqq2vysEYvQ3B-1" value="GitHub 版本控管" style="whiteSpace=wrap;strokeWidth=2;sketch=1;hachureGap=4;jiggle=2;curveFitting=1;fontFamily=Architects Daughter;fontSource=https%3A%2F%2Ffonts.googleapis.com%2Fcss%3Ffamily%3DArchitects%2BDaughter;fontSize=20;" vertex="1" parent="1">
          <mxGeometry x="549" y="-960" width="185" height="49" as="geometry" />
        </mxCell>
        <mxCell id="tWP90vqmqq2vysEYvQ3B-2" value="Streamlit Cloud 部署" style="whiteSpace=wrap;strokeWidth=2;sketch=1;hachureGap=4;jiggle=2;curveFitting=1;fontFamily=Architects Daughter;fontSource=https%3A%2F%2Ffonts.googleapis.com%2Fcss%3Ffamily%3DArchitects%2BDaughter;fontSize=20;" vertex="1" parent="1">
          <mxGeometry x="537.5" y="-870" width="208" height="49" as="geometry" />
        </mxCell>
        <mxCell id="tWP90vqmqq2vysEYvQ3B-3" value="使用者在網頁輸入關鍵字" style="whiteSpace=wrap;strokeWidth=2;sketch=1;hachureGap=4;jiggle=2;curveFitting=1;fontFamily=Architects Daughter;fontSource=https%3A%2F%2Ffonts.googleapis.com%2Fcss%3Ffamily%3DArchitects%2BDaughter;fontSize=20;" vertex="1" parent="1">
          <mxGeometry x="522.5" y="-780" width="236" height="49" as="geometry" />
        </mxCell>
        <mxCell id="tWP90vqmqq2vysEYvQ3B-22" style="edgeStyle=orthogonalEdgeStyle;rounded=0;sketch=1;hachureGap=4;jiggle=2;curveFitting=1;orthogonalLoop=1;jettySize=auto;html=1;fontFamily=Architects Daughter;fontSource=https%3A%2F%2Ffonts.googleapis.com%2Fcss%3Ffamily%3DArchitects%2BDaughter;fontSize=20;" edge="1" parent="1" source="tWP90vqmqq2vysEYvQ3B-4" target="tWP90vqmqq2vysEYvQ3B-5">
          <mxGeometry relative="1" as="geometry" />
        </mxCell>
        <mxCell id="tWP90vqmqq2vysEYvQ3B-23" style="edgeStyle=orthogonalEdgeStyle;rounded=0;sketch=1;hachureGap=4;jiggle=2;curveFitting=1;orthogonalLoop=1;jettySize=auto;html=1;fontFamily=Architects Daughter;fontSource=https%3A%2F%2Ffonts.googleapis.com%2Fcss%3Ffamily%3DArchitects%2BDaughter;fontSize=20;" edge="1" parent="1" source="tWP90vqmqq2vysEYvQ3B-4" target="tWP90vqmqq2vysEYvQ3B-7">
          <mxGeometry relative="1" as="geometry" />
        </mxCell>
        <mxCell id="tWP90vqmqq2vysEYvQ3B-25" style="edgeStyle=orthogonalEdgeStyle;rounded=0;sketch=1;hachureGap=4;jiggle=2;curveFitting=1;orthogonalLoop=1;jettySize=auto;html=1;entryX=0.5;entryY=0;entryDx=0;entryDy=0;fontFamily=Architects Daughter;fontSource=https%3A%2F%2Ffonts.googleapis.com%2Fcss%3Ffamily%3DArchitects%2BDaughter;fontSize=20;" edge="1" parent="1" source="tWP90vqmqq2vysEYvQ3B-4" target="tWP90vqmqq2vysEYvQ3B-6">
          <mxGeometry relative="1" as="geometry" />
        </mxCell>
        <mxCell id="tWP90vqmqq2vysEYvQ3B-4" value="PTT 爬蟲 - 基礎清洗" style="whiteSpace=wrap;strokeWidth=2;sketch=1;hachureGap=4;jiggle=2;curveFitting=1;fontFamily=Architects Daughter;fontSource=https%3A%2F%2Ffonts.googleapis.com%2Fcss%3Ffamily%3DArchitects%2BDaughter;fontSize=20;" vertex="1" parent="1">
          <mxGeometry x="538" y="-700" width="204" height="49" as="geometry" />
        </mxCell>
        <mxCell id="tWP90vqmqq2vysEYvQ3B-29" style="edgeStyle=orthogonalEdgeStyle;rounded=0;sketch=1;hachureGap=4;jiggle=2;curveFitting=1;orthogonalLoop=1;jettySize=auto;html=1;entryX=0;entryY=0.5;entryDx=0;entryDy=0;fontFamily=Architects Daughter;fontSource=https%3A%2F%2Ffonts.googleapis.com%2Fcss%3Ffamily%3DArchitects%2BDaughter;exitX=0.5;exitY=1;exitDx=0;exitDy=0;fontSize=20;" edge="1" parent="1" source="tWP90vqmqq2vysEYvQ3B-5" target="tWP90vqmqq2vysEYvQ3B-8">
          <mxGeometry relative="1" as="geometry" />
        </mxCell>
        <mxCell id="tWP90vqmqq2vysEYvQ3B-5" value="情感分析 - HuggingFace" style="whiteSpace=wrap;strokeWidth=2;sketch=1;hachureGap=4;jiggle=2;curveFitting=1;fontFamily=Architects Daughter;fontSource=https%3A%2F%2Ffonts.googleapis.com%2Fcss%3Ffamily%3DArchitects%2BDaughter;fontSize=20;" vertex="1" parent="1">
          <mxGeometry x="290" y="-620" width="230" height="49" as="geometry" />
        </mxCell>
        <mxCell id="tWP90vqmqq2vysEYvQ3B-32" value="" style="edgeStyle=orthogonalEdgeStyle;rounded=0;sketch=1;hachureGap=4;jiggle=2;curveFitting=1;orthogonalLoop=1;jettySize=auto;html=1;fontFamily=Architects Daughter;fontSource=https%3A%2F%2Ffonts.googleapis.com%2Fcss%3Ffamily%3DArchitects%2BDaughter;" edge="1" parent="1" source="tWP90vqmqq2vysEYvQ3B-6" target="tWP90vqmqq2vysEYvQ3B-8">
          <mxGeometry relative="1" as="geometry" />
        </mxCell>
        <mxCell id="tWP90vqmqq2vysEYvQ3B-6" value="ARIMA 趨勢預測" style="whiteSpace=wrap;strokeWidth=2;sketch=1;hachureGap=4;jiggle=2;curveFitting=1;fontFamily=Architects Daughter;fontSource=https%3A%2F%2Ffonts.googleapis.com%2Fcss%3Ffamily%3DArchitects%2BDaughter;fontSize=20;" vertex="1" parent="1">
          <mxGeometry x="553.5" y="-620" width="173" height="49" as="geometry" />
        </mxCell>
        <mxCell id="tWP90vqmqq2vysEYvQ3B-28" style="edgeStyle=orthogonalEdgeStyle;rounded=0;sketch=1;hachureGap=4;jiggle=2;curveFitting=1;orthogonalLoop=1;jettySize=auto;html=1;entryX=1;entryY=0.5;entryDx=0;entryDy=0;fontFamily=Architects Daughter;fontSource=https%3A%2F%2Ffonts.googleapis.com%2Fcss%3Ffamily%3DArchitects%2BDaughter;exitX=0.5;exitY=1;exitDx=0;exitDy=0;fontSize=20;" edge="1" parent="1" source="tWP90vqmqq2vysEYvQ3B-7" target="tWP90vqmqq2vysEYvQ3B-8">
          <mxGeometry relative="1" as="geometry" />
        </mxCell>
        <mxCell id="tWP90vqmqq2vysEYvQ3B-7" value="K-means 用戶分群" style="whiteSpace=wrap;strokeWidth=2;sketch=1;hachureGap=4;jiggle=2;curveFitting=1;fontFamily=Architects Daughter;fontSource=https%3A%2F%2Ffonts.googleapis.com%2Fcss%3Ffamily%3DArchitects%2BDaughter;fontSize=20;" vertex="1" parent="1">
          <mxGeometry x="770" y="-620" width="190" height="49" as="geometry" />
        </mxCell>
        <mxCell id="tWP90vqmqq2vysEYvQ3B-26" style="edgeStyle=orthogonalEdgeStyle;rounded=0;sketch=1;hachureGap=4;jiggle=2;curveFitting=1;orthogonalLoop=1;jettySize=auto;html=1;entryX=0.5;entryY=0;entryDx=0;entryDy=0;fontFamily=Architects Daughter;fontSource=https%3A%2F%2Ffonts.googleapis.com%2Fcss%3Ffamily%3DArchitects%2BDaughter;fontSize=20;" edge="1" parent="1" source="tWP90vqmqq2vysEYvQ3B-8" target="tWP90vqmqq2vysEYvQ3B-9">
          <mxGeometry relative="1" as="geometry" />
        </mxCell>
        <mxCell id="tWP90vqmqq2vysEYvQ3B-8" value="Streamlit 視覺化 - 長條與折線圖" style="whiteSpace=wrap;strokeWidth=2;sketch=1;hachureGap=4;jiggle=2;curveFitting=1;fontFamily=Architects Daughter;fontSource=https%3A%2F%2Ffonts.googleapis.com%2Fcss%3Ffamily%3DArchitects%2BDaughter;fontSize=20;" vertex="1" parent="1">
          <mxGeometry x="545.5" y="-540" width="190" height="67" as="geometry" />
        </mxCell>
        <mxCell id="tWP90vqmqq2vysEYvQ3B-9" value="使用者查看分析結果" style="whiteSpace=wrap;strokeWidth=2;sketch=1;hachureGap=4;jiggle=2;curveFitting=1;fontFamily=Architects Daughter;fontSource=https%3A%2F%2Ffonts.googleapis.com%2Fcss%3Ffamily%3DArchitects%2BDaughter;fontSize=20;" vertex="1" parent="1">
          <mxGeometry x="544.5" y="-440" width="192" height="49" as="geometry" />
        </mxCell>
        <mxCell id="tWP90vqmqq2vysEYvQ3B-11" value="" style="curved=1;startArrow=none;endArrow=block;exitX=0.5;exitY=1;entryX=0.5;entryY=0;rounded=0;sketch=1;hachureGap=4;jiggle=2;curveFitting=1;fontFamily=Architects Daughter;fontSource=https%3A%2F%2Ffonts.googleapis.com%2Fcss%3Ffamily%3DArchitects%2BDaughter;entryDx=0;entryDy=0;exitDx=0;exitDy=0;fontSize=20;" edge="1" parent="1" source="tWP90vqmqq2vysEYvQ3B-2" target="tWP90vqmqq2vysEYvQ3B-3">
          <mxGeometry relative="1" as="geometry">
            <Array as="points" />
          </mxGeometry>
        </mxCell>
        <mxCell id="tWP90vqmqq2vysEYvQ3B-12" value="" style="curved=1;startArrow=none;endArrow=block;exitX=0.5;exitY=1;entryX=0.5;entryY=0;rounded=0;sketch=1;hachureGap=4;jiggle=2;curveFitting=1;fontFamily=Architects Daughter;fontSource=https%3A%2F%2Ffonts.googleapis.com%2Fcss%3Ffamily%3DArchitects%2BDaughter;exitDx=0;exitDy=0;entryDx=0;entryDy=0;fontSize=20;" edge="1" parent="1" source="tWP90vqmqq2vysEYvQ3B-3" target="tWP90vqmqq2vysEYvQ3B-4">
          <mxGeometry relative="1" as="geometry">
            <Array as="points" />
          </mxGeometry>
        </mxCell>
        <mxCell id="tWP90vqmqq2vysEYvQ3B-24" style="edgeStyle=orthogonalEdgeStyle;rounded=0;sketch=1;hachureGap=4;jiggle=2;curveFitting=1;orthogonalLoop=1;jettySize=auto;html=1;exitX=0.5;exitY=1;exitDx=0;exitDy=0;fontFamily=Architects Daughter;fontSource=https%3A%2F%2Ffonts.googleapis.com%2Fcss%3Ffamily%3DArchitects%2BDaughter;fontSize=20;" edge="1" parent="1" source="tWP90vqmqq2vysEYvQ3B-6" target="tWP90vqmqq2vysEYvQ3B-6">
          <mxGeometry relative="1" as="geometry" />
        </mxCell>
      </root>
    </mxGraphModel>
  </diagram>
</mxfile>
